<svg xmlns="http://www.w3.org/2000/svg" xml:space="preserve" width="500" height="200" viewBox="0 0 132.292 52.917"><path d="M18.099 5.985a6.95 6.95 0 0 0-1.118.07 7.84 7.84 0 0 0-2.158.645c-1.374.631-2.592 1.65-3.354 2.992a5.912 5.912 0 0 0-.743 3.338c-3.275-.06-5.776 2.003-6.66 4.666-.892 2.697-.108 5.964 2.48 8.317-2.85 2.518-3.229 5.862-2.027 8.456 1.174 2.533 3.66 4.388 6.429 4.7-.186 2.863 1.156 5.378 3.298 6.711 2.409 1.499 5.77 1.521 8.493-.742a1 1 0 0 0 .129-1.408 1 1 0 0 0-1.409-.129c-2.119 1.76-4.416 1.665-6.157.582-1.74-1.082-2.86-3.157-2.342-5.675a1 1 0 0 0-1.027-1.201c-2.213.104-4.609-1.538-5.6-3.677-.99-2.14-.813-4.596 2.286-6.733a1 1 0 0 0-.005-1.65c-2.779-1.89-3.382-4.711-2.65-6.92.735-2.211 2.69-3.79 5.783-3.186a1 1 0 0 0 1.145-1.28c-.384-1.229-.202-2.265.318-3.181.519-.916 1.415-1.69 2.448-2.164 1.033-.476 2.188-.645 3.168-.451.98.192 1.79.695 2.356 1.702a1 1 0 0 0 1.363.381 1 1 0 0 0 .38-1.36 5.425 5.425 0 0 0-3.712-2.684 6.389 6.389 0 0 0-1.113-.12Zm.099 4.407a3.34 3.34 0 0 0-3.325 3.325 3.345 3.345 0 0 0 2.326 3.17v2.104a1 1 0 0 0 .992 1l8.51.062v1.853a4.404 4.404 0 0 0-3.248 3.233h-6.397a3.345 3.345 0 0 0-3.17-2.328 3.342 3.342 0 0 0-3.325 3.327 3.342 3.342 0 0 0 3.325 3.326 3.345 3.345 0 0 0 3.17-2.326h6.386a4.404 4.404 0 0 0 3.26 3.278v1.736l-8.51.061a1 1 0 0 0-.993 1v2.104a3.346 3.346 0 0 0-2.325 3.17 3.34 3.34 0 0 0 3.325 3.326 3.34 3.34 0 0 0 3.325-3.325 3.346 3.346 0 0 0-2.327-3.171v-1.112l8.512-.06a1 1 0 0 0 .993-1v-2.728c1.925-.457 3.374-2.196 3.374-4.256s-1.449-3.8-3.374-4.255v-2.845a1 1 0 0 0-.993-1L19.197 18v-1.112a3.346 3.346 0 0 0 2.328-3.171 3.34 3.34 0 0 0-3.326-3.325zm6.49.957c-.03 0-.087-.018-.177.067a.268.268 0 0 0-.07.134.127.127 0 0 1 0 .004.231.231 0 0 0 0 .004l-.555 3.987a.231.231 0 0 0 .228.263l1.389.002a.231.231 0 0 0 .226-.187l.35-1.8a.231.231 0 0 0 .001-.012.523.523 0 0 1 .522-.453h2.297a.525.525 0 0 1 .522.453l.5 3.53a.231.231 0 0 0 .168.191 8.787 8.787 0 0 1 4.019 2.342.231.231 0 0 0 .256.05l3.225-1.391a.524.524 0 0 1 .665.22l1.149 1.992a.523.523 0 0 1-.144.687l-2.822 2.074a.231.231 0 0 0-.086.248 9.029 9.029 0 0 1 0 4.783.231.231 0 0 0 .086.248l2.836 2.073a.525.525 0 0 1 .146.69l-1.15 1.991a.523.523 0 0 1-.663.22l-3.258-1.395a.231.231 0 0 0-.255.05 8.936 8.936 0 0 1-3.99 2.34.231.231 0 0 0-.167.191l-.499 3.52a.525.525 0 0 1-.522.452h-2.328a.524.524 0 0 1-.521-.454.231.231 0 0 0-.004-.022l-.443-1.8a.231.231 0 0 0-.225-.177l-1.28.004a.231.231 0 0 0-.229.264l.556 3.982c-.004-.032-.007.062.063.137a.232.232 0 0 0 .183.077h6.128c.036 0 .108 0 .18-.073.073-.074.073-.174.066-.13a.231.231 0 0 0 0-.007l.564-4.039a.526.526 0 0 1 .327-.416c.91-.36 1.693-.852 2.468-1.433a.526.526 0 0 1 .512-.066l3.804 1.526a.231.231 0 0 0 .278-.086c-.003.005.002-.001.014-.022l3.063-5.3a.231.231 0 0 0 .006-.012l.002-.004a.231.231 0 0 0-.064-.287l-3.226-2.492a.527.527 0 0 1-.204-.452v-.001l.104-1.48a.231.231 0 0 0 0-.032l-.104-1.479a.527.527 0 0 1 .204-.453l3.226-2.491a.231.231 0 0 0 .065-.286.09.09 0 0 0-.003-.008.231.231 0 0 0-.006-.01l-3.063-5.3a.231.231 0 0 0-.006-.009.231.231 0 0 0-.286-.1l-3.804 1.53a.526.526 0 0 1-.512-.068c-.775-.58-1.559-1.072-2.467-1.433a.528.528 0 0 1-.327-.417l-.563-4.032c.002.017-.005-.082-.072-.147a.241.241 0 0 0-.176-.069zm-6.489 1.042c.744 0 1.327.582 1.327 1.326 0 .744-.583 1.327-1.327 1.327a1.312 1.312 0 0 1-1.326-1.327 1.31 1.31 0 0 1 1.326-1.326zm9.503 11.397a2.358 2.358 0 0 1 2.374 2.373 2.358 2.358 0 0 1-2.374 2.374 2.358 2.358 0 0 1-2.373-2.374 2.358 2.358 0 0 1 2.373-2.372zM13.887 24.81c.744 0 1.326.583 1.326 1.327 0 .745-.582 1.327-1.326 1.327a1.313 1.313 0 0 1-1.327-1.327c0-.744.582-1.327 1.327-1.327zm4.312 12.35c.744 0 1.327.582 1.327 1.327 0 .744-.583 1.326-1.327 1.326a1.31 1.31 0 0 1-1.326-1.326c0-.745.582-1.327 1.326-1.327z" style="fill:#fff;stroke-width:4.02507"/><g style="fill:#fff;stroke-width:.92758"><path d="M327.14 105.268q2.72 0 3.96-.92 1.24-.92 1.24-2.6 0-1-.44-1.72-.4-.72-1.2-1.28-.76-.6-1.88-1.08-1.12-.52-2.56-1-1.44-.52-2.8-1.12-1.32-.64-2.36-1.56-1-.92-1.64-2.2-.6-1.28-.6-3.08 0-3.76 2.6-5.88 2.6-2.16 7.08-2.16 2.6 0 4.6.6 2.04.56 3.2 1.24l-1.56 4.08q-1.36-.76-3-1.16-1.6-.4-3.32-.4-2.04 0-3.2.84-1.12.84-1.12 2.36 0 .92.36 1.6.4.64 1.08 1.16.72.52 1.64.96.96.44 2.08.84 1.96.72 3.48 1.48 1.56.72 2.6 1.76 1.08 1 1.64 2.4.56 1.36.56 3.32 0 3.76-2.68 5.84-2.64 2.04-7.76 2.04-1.72 0-3.16-.24-1.4-.2-2.52-.52-1.08-.32-1.88-.64-.8-.36-1.28-.64l1.48-4.12q1.08.6 2.92 1.2 1.84.6 4.44.6zm20.08 1.12q0 1.4-.96 2.28-.92.88-2.24.88-1.36 0-2.28-.88-.92-.88-.92-2.28t.92-2.28q.92-.92 2.28-.92 1.32 0 2.24.92.96.88.96 2.28zm5.44 2.64v-27.72h17.8v4.28H357.7v6.84h11.36v4.2H357.7v8.12h13.72v4.28zm29-2.64q0 1.4-.96 2.28-.92.88-2.24.88-1.36 0-2.28-.88-.92-.88-.92-2.28t.92-2.28q.92-.92 2.28-.92 1.32 0 2.24.92.96.88.96 2.28zm24.72 2.64q-.56-1.64-1.16-3.24-.6-1.6-1.16-3.28h-11.68q-.56 1.68-1.16 3.32l-1.12 3.2h-5.24q1.56-4.44 2.96-8.2 1.4-3.76 2.72-7.12 1.36-3.36 2.68-6.4 1.32-3.04 2.72-6h4.76q1.4 2.96 2.72 6 1.32 3.04 2.64 6.4 1.36 3.36 2.76 7.12 1.44 3.76 3 8.2zm-8.16-22.36q-.92 2.12-2.12 5.16-1.16 3.04-2.44 6.6h9.12q-1.28-3.56-2.48-6.64-1.2-3.08-2.08-5.12zm23.24 19.72q0 1.4-.96 2.28-.92.88-2.24.88-1.36 0-2.28-.88-.92-.88-.92-2.28t.92-2.28q.92-.92 2.28-.92 1.32 0 2.24.92.96.88.96 2.28z" aria-label="S.E.A." style="font-weight:500;font-size:40px;line-height:1.25;font-family:Ubuntu;-inkscape-font-specification:&quot;Ubuntu Medium&quot;;white-space:pre;stroke-width:.35094;fill:#fff" transform="translate(-188.759 -45.262) scale(.75393)"/></g></svg>