<svg xmlns="http://www.w3.org/2000/svg" xml:space="preserve" width="1000" height="1000" viewBox="0 0 264.583 264.583"><path d="M101.998 3.586c-2.346-.045-4.7.107-7.031.441-4.665.668-9.251 2.063-13.569 4.05-8.636 3.974-16.295 10.38-21.082 18.817-3.456 6.092-5.202 13.329-4.67 20.983-20.584-.377-36.308 12.59-41.863 29.332-5.624 16.952-.69 37.49 15.576 52.289-17.905 15.821-20.287 36.845-12.734 53.156 7.374 15.922 23.008 27.585 40.414 29.55-1.166 17.99 7.27 33.806 20.732 42.183 15.143 9.423 36.272 9.563 53.39-4.666a6.285 6.285 0 0 0 .808-8.85 6.285 6.285 0 0 0-8.85-.815c-13.322 11.074-27.77 10.47-38.707 3.664s-17.986-19.853-14.73-35.682a6.285 6.285 0 0 0-6.45-7.55c-13.916.657-28.974-9.66-35.204-23.113s-5.117-28.89 14.374-42.322a6.285 6.285 0 0 0-.032-10.373c-17.467-11.881-21.266-29.623-16.657-43.514s16.908-23.822 36.345-20.019a6.285 6.285 0 0 0 7.205-8.041c-2.417-7.733-1.277-14.25 1.989-20.007s8.902-10.617 15.399-13.606c6.497-2.99 13.748-4.05 19.914-2.836 6.167 1.215 11.254 4.37 14.816 10.703a6.285 6.285 0 0 0 8.563 2.394 6.285 6.285 0 0 0 2.393-8.555c-5.328-9.471-14.094-15.05-23.34-16.871a40 40 0 0 0-7-.742Zm.624 27.702c-11.472 0-20.904 9.432-20.904 20.904 0 9.284 6.177 17.233 14.613 19.93v13.23a6.285 6.285 0 0 0 6.24 6.284l53.506.387v11.654c-10.035 2.378-17.993 10.3-20.423 20.316H95.438c-2.692-8.441-10.64-14.626-19.926-14.626-11.472 0-20.909 9.438-20.909 20.91s9.437 20.91 20.909 20.91c9.286 0 17.234-6.185 19.926-14.626h40.148c2.344 10.155 10.358 18.21 20.49 20.612v10.91l-53.505.387a6.285 6.285 0 0 0-6.24 6.284v13.23c-8.436 2.697-14.613 10.646-14.613 19.93 0 11.472 9.432 20.904 20.904 20.904s20.908-9.432 20.908-20.904c0-9.288-6.187-17.24-14.63-19.932v-6.986l53.511-.387a6.285 6.285 0 0 0 6.236-6.284v-17.15c12.111-2.863 21.21-13.802 21.21-26.75s-9.099-23.887-21.21-26.751V85.787a6.285 6.285 0 0 0-6.236-6.284l-53.511-.386v-6.993c8.443-2.692 14.63-10.644 14.63-19.932 0-11.472-9.436-20.904-20.908-20.904m40.792 6.018c-.18 0-.55-.11-1.106.422-.278.267-.407.672-.435.841l-.006.026v.025l-3.498 25.065a1.452 1.452 0 0 0 1.436 1.655l8.733.012a1.45 1.45 0 0 0 1.424-1.177l2.197-11.318.013-.073a3.29 3.29 0 0 1 3.276-2.848h14.443a3.3 3.3 0 0 1 3.283 2.848l3.136 22.193a1.45 1.45 0 0 0 1.062 1.201 55.24 55.24 0 0 1 25.26 14.724 1.45 1.45 0 0 0 1.614.313l20.279-8.75a3.295 3.295 0 0 1 4.18 1.386l7.217 12.52a3.29 3.29 0 0 1-.902 4.32l-17.744 13.035a1.45 1.45 0 0 0-.54 1.56 56.76 56.76 0 0 1 0 30.072 1.45 1.45 0 0 0 .54 1.56l17.83 13.035a3.3 3.3 0 0 1 .914 4.333l-7.223 12.52a3.29 3.29 0 0 1-4.168 1.382l-20.487-8.77a1.45 1.45 0 0 0-1.6.317c-6.833 6.91-15.412 12.054-25.084 14.712a1.45 1.45 0 0 0-1.05 1.197l-3.136 22.125a3.3 3.3 0 0 1-3.284 2.848h-14.637a3.294 3.294 0 0 1-3.276-2.855 2 2 0 0 0-.026-.14l-2.78-11.318a1.45 1.45 0 0 0-1.417-1.11l-8.053.025a1.452 1.452 0 0 0-1.429 1.658l3.492 25.034c0-.002.006.01.006.006-.029-.207-.05.384.392.855a1.46 1.46 0 0 0 1.153.484h38.52c.228 0 .677.003 1.134-.46.458-.464.458-1.09.411-.817l.006-.042 3.542-25.39a3.31 3.31 0 0 1 2.062-2.621c5.711-2.266 10.638-5.355 15.503-9.004a3.3 3.3 0 0 1 3.222-.418l23.917 9.6a1.45 1.45 0 0 0 1.749-.547c-.022.032.009-.006.086-.134l19.252-33.32.044-.073c.009-.022.016-.028.012-.025a1.45 1.45 0 0 0-.406-1.81l-20.276-15.662a3.31 3.31 0 0 1-1.283-2.848v-.006l.65-9.292a1.5 1.5 0 0 0 0-.208l-.65-9.298a3.31 3.31 0 0 1 1.283-2.848l20.277-15.662a1.45 1.45 0 0 0 .41-1.799l-.024-.049-.038-.061-19.252-33.32-.037-.056a1.45 1.45 0 0 0-1.798-.625l-23.917 9.605a3.3 3.3 0 0 1-3.222-.417c-4.866-3.65-9.792-6.745-15.503-9.01a3.32 3.32 0 0 1-2.062-2.627l-3.535-25.341c.013.109-.031-.514-.448-.92a1.52 1.52 0 0 0-1.11-.442zm-40.792 6.552c4.679 0 8.34 3.655 8.34 8.334s-3.661 8.341-8.34 8.341-8.335-3.662-8.335-8.341c0-4.68 3.656-8.334 8.335-8.334m59.745 71.647c8.314 0 14.92 6.606 14.92 14.92s-6.606 14.92-14.92 14.92-14.92-6.606-14.92-14.92 6.607-14.92 14.92-14.92m-86.855 6.432c4.679 0 8.335 3.66 8.335 8.34s-3.656 8.342-8.335 8.342-8.34-3.663-8.34-8.342 3.66-8.34 8.34-8.34m27.11 77.637c4.679 0 8.34 3.661 8.34 8.34s-3.661 8.335-8.34 8.335-8.335-3.656-8.335-8.335 3.656-8.34 8.335-8.34" style="fill:#f9f9f9;stroke-width:4.02504"/></svg>
