<svg xmlns="http://www.w3.org/2000/svg" xml:space="preserve" width="1000" height="200" viewBox="0 0 264.583 52.917"><defs><path id="b" d="M235.189 355.062h640.678v237.62H235.189z"/><path id="a" d="M317.099 71.728h135.285v55.398H317.099z"/></defs><path d="M0 0h264.583v52.917H0z" style="fill:#28487b;fill-opacity:1;stroke:none;stroke-width:4;stroke-linejoin:round;paint-order:stroke markers fill"/><g style="stroke-width:1.05278"><path d="M29.96 6.097a7.003 7.003 0 0 0-1.126.07 7.9 7.9 0 0 0-2.175.65c-1.384.636-2.611 1.663-3.379 3.015a5.957 5.957 0 0 0-.748 3.363c-3.3-.06-5.82 2.018-6.71 4.701-.9 2.717-.11 6.009 2.497 8.38-2.87 2.537-3.252 5.906-2.041 8.52 1.182 2.552 3.688 4.421 6.477 4.736-.187 2.884 1.165 5.418 3.323 6.761 2.427 1.51 5.813 1.533 8.557-.748a1.007 1.007 0 0 0 .13-1.418 1.007 1.007 0 0 0-1.419-.13c-2.135 1.774-4.45 1.677-6.204.586-1.753-1.09-2.882-3.181-2.36-5.718a1.007 1.007 0 0 0-1.034-1.21c-2.23.105-4.644-1.549-5.642-3.705-.999-2.156-.82-4.63 2.303-6.783a1.007 1.007 0 0 0-.005-1.662c-2.8-1.905-3.408-4.748-2.67-6.974.74-2.227 2.71-3.818 5.826-3.209a1.007 1.007 0 0 0 1.154-1.289c-.387-1.239-.204-2.283.32-3.206.523-.923 1.426-1.702 2.467-2.18 1.041-.48 2.204-.65 3.192-.455.988.194 1.804.7 2.374 1.715a1.007 1.007 0 0 0 1.373.384 1.007 1.007 0 0 0 .383-1.371 5.466 5.466 0 0 0-3.74-2.704 6.437 6.437 0 0 0-1.122-.12Zm.1 4.44a3.365 3.365 0 0 0-3.35 3.35 3.37 3.37 0 0 0 2.343 3.194v2.12a1.007 1.007 0 0 0 1 1.008l8.575.062v1.867a4.437 4.437 0 0 0-3.273 3.257h-6.446a3.37 3.37 0 0 0-3.193-2.345 3.367 3.367 0 0 0-3.351 3.352 3.367 3.367 0 0 0 3.35 3.351 3.37 3.37 0 0 0 3.194-2.344h6.435a4.437 4.437 0 0 0 3.284 3.303v1.749l-8.575.062a1.007 1.007 0 0 0-1 1.007v2.12a3.371 3.371 0 0 0-2.342 3.195 3.365 3.365 0 0 0 3.35 3.35 3.366 3.366 0 0 0 3.35-3.35 3.371 3.371 0 0 0-2.344-3.195v-1.12l8.576-.061a1.007 1.007 0 0 0 1-1.008v-2.748c1.94-.46 3.4-2.212 3.4-4.288 0-2.075-1.46-3.828-3.4-4.287v-2.867a1.007 1.007 0 0 0-1-1.007l-8.576-.062v-1.12a3.371 3.371 0 0 0 2.345-3.195 3.366 3.366 0 0 0-3.351-3.35zm6.539.964c-.03 0-.088-.018-.178.068a.27.27 0 0 0-.07.135.128.128 0 0 1 0 .004.233.233 0 0 0 0 .004l-.56 4.017a.233.233 0 0 0 .23.265l1.399.002a.233.233 0 0 0 .228-.189L38 13.994a.233.233 0 0 0 .002-.012.527.527 0 0 1 .525-.457h2.315a.529.529 0 0 1 .526.457l.503 3.557a.233.233 0 0 0 .17.192 8.853 8.853 0 0 1 4.049 2.36.233.233 0 0 0 .258.05l3.25-1.402a.528.528 0 0 1 .67.222l1.157 2.007a.527.527 0 0 1-.145.692l-2.843 2.09a.233.233 0 0 0-.087.25 9.097 9.097 0 0 1 0 4.819.233.233 0 0 0 .087.25l2.857 2.089a.529.529 0 0 1 .147.694l-1.158 2.007a.527.527 0 0 1-.668.222l-3.283-1.406a.233.233 0 0 0-.257.05 9.004 9.004 0 0 1-4.02 2.359.233.233 0 0 0-.168.192l-.503 3.546a.529.529 0 0 1-.526.456h-2.346a.528.528 0 0 1-.525-.458.233.233 0 0 0-.004-.022l-.446-1.814a.233.233 0 0 0-.227-.178l-1.29.004a.233.233 0 0 0-.23.266l.56 4.012v.001c-.004-.033-.007.062.064.137a.234.234 0 0 0 .184.078h6.174c.037 0 .109 0 .182-.074s.073-.175.066-.131a.233.233 0 0 0 0-.007l.568-4.069a.53.53 0 0 1 .33-.42c.916-.363 1.706-.858 2.486-1.443a.53.53 0 0 1 .516-.067l3.833 1.538a.233.233 0 0 0 .28-.087c-.003.005.002-.001.014-.022l3.086-5.34a.233.233 0 0 0 .007-.012l.002-.004a.233.233 0 0 0-.065-.29l-3.25-2.51a.531.531 0 0 1-.206-.456v-.001l.105-1.49a.233.233 0 0 0 0-.033l-.105-1.49a.531.531 0 0 1 .206-.457l3.25-2.51a.233.233 0 0 0 .066-.288.09.09 0 0 0-.004-.008.233.233 0 0 0-.006-.01l-3.086-5.34a.233.233 0 0 0-.006-.009.233.233 0 0 0-.288-.1l-3.833 1.54a.53.53 0 0 1-.516-.068c-.78-.585-1.57-1.08-2.485-1.444a.532.532 0 0 1-.33-.42l-.567-4.062c.002.017-.005-.083-.072-.148a.243.243 0 0 0-.178-.07zm-6.538 1.05c.75 0 1.337.586 1.337 1.336 0 .75-.587 1.337-1.337 1.337s-1.336-.587-1.336-1.337.586-1.336 1.336-1.336zm9.575 11.483a2.376 2.376 0 0 1 2.392 2.391 2.376 2.376 0 0 1-2.392 2.392 2.376 2.376 0 0 1-2.391-2.392 2.376 2.376 0 0 1 2.391-2.39zm-13.92 1.031c.75 0 1.336.587 1.336 1.337s-.586 1.337-1.336 1.337c-.75 0-1.337-.587-1.337-1.337s.587-1.337 1.337-1.337zm4.345 12.443c.75 0 1.337.587 1.337 1.337s-.587 1.336-1.337 1.336a1.32 1.32 0 0 1-1.336-1.336c0-.75.586-1.337 1.336-1.337z" style="fill:#fff;stroke-width:4.23748" transform="translate(.186 1.073) scale(.94987)"/><g style="stroke-width:1.29609"><text xml:space="preserve" style="font-style:normal;font-weight:400;font-size:40px;line-height:1.25;font-family:sans-serif;white-space:pre;shape-inside:url(#a);fill:#000;fill-opacity:1;stroke:none;stroke-width:.490362" transform="translate(-112.731 -27.866) scale(.53957)"><tspan x="317.1" y="109.028"><tspan style="font-weight:700;font-family:Ubuntu;-inkscape-font-specification:&quot;Ubuntu Bold&quot;;fill:#fff">S.E.A.</tspan></tspan></text><text xml:space="preserve" style="font-style:normal;font-weight:400;font-size:40px;line-height:1.25;font-family:sans-serif;white-space:pre;shape-inside:url(#b);fill:#fff;fill-opacity:1;stroke:none;stroke-width:2.36787" transform="translate(32.989 -6.714) scale(.11174)"><tspan x="235.189" y="392.362"><tspan style="font-family:ubuntu;-inkscape-font-specification:ubuntu">Smart Engineering Assistant</tspan></tspan></text></g></g></svg>